<svg xmlns="http://www.w3.org/2000/svg" xmlns:xlink="http://www.w3.org/1999/xlink" width="1080" zoomAndPan="magnify" viewBox="0 0 810 809.999993" height="1080" preserveAspectRatio="xMidYMid meet" version="1.0"><defs><clipPath id="43762aef54"><path d="M 405 0 C 181.324219 0 0 181.324219 0 405 C 0 628.675781 181.324219 810 405 810 C 628.675781 810 810 628.675781 810 405 C 810 181.324219 628.675781 0 405 0 Z M 405 0 " clip-rule="nonzero"/></clipPath><clipPath id="9d14d2f83a"><path d="M 0 588.394531 L 221.605469 588.394531 L 221.605469 810 L 0 810 Z M 0 588.394531 " clip-rule="nonzero"/></clipPath><clipPath id="9b72151bb1"><path d="M 110.804688 588.394531 C 49.609375 588.394531 0 638 0 699.195312 C 0 760.390625 49.609375 810 110.804688 810 C 172 810 221.605469 760.390625 221.605469 699.195312 C 221.605469 638 172 588.394531 110.804688 588.394531 Z M 110.804688 588.394531 " clip-rule="nonzero"/></clipPath><clipPath id="791fbd69f2"><path d="M 0 405 L 405 405 L 405 699.195312 L 0 699.195312 Z M 0 405 " clip-rule="nonzero"/></clipPath><clipPath id="34f5587882"><path d="M 110.804688 405 L 405 405 L 405 810 L 110.804688 810 Z M 110.804688 405 " clip-rule="nonzero"/></clipPath><clipPath id="14ffe900a9"><path d="M 111.46875 111.46875 L 698.53125 111.46875 L 698.53125 698.53125 L 111.46875 698.53125 Z M 111.46875 111.46875 " clip-rule="nonzero"/></clipPath><clipPath id="aa2c0de9a8"><path d="M 405 111.46875 C 242.886719 111.46875 111.46875 242.886719 111.46875 405 C 111.46875 567.109375 242.886719 698.53125 405 698.53125 C 567.113281 698.53125 698.53125 567.109375 698.53125 405 C 698.53125 242.886719 567.113281 111.46875 405 111.46875 Z M 405 111.46875 " clip-rule="nonzero"/></clipPath><clipPath id="e7eebca883"><path d="M 291.542969 110.277344 L 518.457031 110.277344 L 518.457031 699.722656 L 291.542969 699.722656 Z M 291.542969 110.277344 " clip-rule="nonzero"/></clipPath></defs><g clip-path="url(#43762aef54)"><rect x="-81" width="972" fill="#5e5c5e" y="-80.999999" height="971.999992" fill-opacity="1"/></g><g clip-path="url(#9d14d2f83a)"><g clip-path="url(#9b72151bb1)"><path fill="#5e5c5e" d="M 0 588.394531 L 221.605469 588.394531 L 221.605469 810 L 0 810 Z M 0 588.394531 " fill-opacity="1" fill-rule="nonzero"/></g></g><g clip-path="url(#791fbd69f2)"><path fill="#5e5c5e" d="M 0 405 L 404.519531 405 L 404.519531 699.195312 L 0 699.195312 Z M 0 405 " fill-opacity="1" fill-rule="nonzero"/></g><g clip-path="url(#34f5587882)"><path fill="#5e5c5e" d="M 110.804688 405 L 405 405 L 405 809.519531 L 110.804688 809.519531 Z M 110.804688 405 " fill-opacity="1" fill-rule="nonzero"/></g><g clip-path="url(#14ffe900a9)"><g clip-path="url(#aa2c0de9a8)"><path stroke-linecap="butt" transform="matrix(0.75, 0, 0, 0.75, 111.467297, 111.467299)" fill="none" stroke-linejoin="miter" d="M 391.376957 0.00193441 C 175.225904 0.00193441 0.00193721 175.225902 0.00193721 391.376954 C 0.00193721 607.528007 175.225904 782.751974 391.376957 782.751974 C 607.528009 782.751974 782.751977 607.528007 782.751977 391.376954 C 782.751977 175.225902 607.528009 0.00193441 391.376957 0.00193441 Z M 391.376957 0.00193441 " stroke="#ffffff" stroke-width="180" stroke-opacity="1" stroke-miterlimit="4"/></g></g><g clip-path="url(#e7eebca883)"><path fill="#5e5c5e" d="M 291.542969 110.277344 L 518.457031 110.277344 L 518.457031 699.726562 L 291.542969 699.726562 Z M 291.542969 110.277344 " fill-opacity="1" fill-rule="nonzero"/></g><path stroke-linecap="butt" transform="matrix(0.75, 0, 0, 0.75, 122.981085, 371.250001)" fill="none" stroke-linejoin="miter" d="M -0.000822084 45.000001 L 752.051299 45.000001 " stroke="#ffffff" stroke-width="90" stroke-opacity="1" stroke-miterlimit="4"/></svg>